<mxfile host="app.diagrams.net" modified="2023-11-23T12:54:43.485Z" agent="Mozilla/5.0 (Windows NT 10.0; Win64; x64; rv:109.0) Gecko/20100101 Firefox/119.0" etag="8db1AfZaofioQxttxnUy" version="22.1.3" type="device">
  <diagram name="Страница — 1" id="ahnOX7mBA56WsBQ2i06z">
    <mxGraphModel dx="431" dy="454" grid="0" gridSize="10" guides="1" tooltips="1" connect="1" arrows="1" fold="1" page="1" pageScale="1" pageWidth="827" pageHeight="1169" math="0" shadow="0">
      <root>
        <mxCell id="0" />
        <mxCell id="1" parent="0" />
        <mxCell id="Ml1TIX4p95IZXYvKLM33-52" value="" style="shape=loopLimit;whiteSpace=wrap;html=1;rotation=-180;" vertex="1" parent="1">
          <mxGeometry x="554.25" y="1408" width="210" height="49" as="geometry" />
        </mxCell>
        <mxCell id="Ml1TIX4p95IZXYvKLM33-1" style="edgeStyle=orthogonalEdgeStyle;rounded=0;orthogonalLoop=1;jettySize=auto;html=1;entryX=0.5;entryY=0;entryDx=0;entryDy=0;" edge="1" parent="1" source="Ml1TIX4p95IZXYvKLM33-2" target="Ml1TIX4p95IZXYvKLM33-4">
          <mxGeometry relative="1" as="geometry" />
        </mxCell>
        <mxCell id="Ml1TIX4p95IZXYvKLM33-2" value="&lt;div&gt;DFS(Node[] heads, n) &lt;br&gt;Начало&lt;br&gt;&lt;/div&gt;" style="ellipse;whiteSpace=wrap;html=1;" vertex="1" parent="1">
          <mxGeometry x="158" y="694" width="210" height="60" as="geometry" />
        </mxCell>
        <mxCell id="Ml1TIX4p95IZXYvKLM33-3" style="edgeStyle=orthogonalEdgeStyle;rounded=0;orthogonalLoop=1;jettySize=auto;html=1;" edge="1" parent="1" source="Ml1TIX4p95IZXYvKLM33-4" target="Ml1TIX4p95IZXYvKLM33-6">
          <mxGeometry relative="1" as="geometry" />
        </mxCell>
        <mxCell id="Ml1TIX4p95IZXYvKLM33-4" value="visited = new boolean[n]" style="rounded=0;whiteSpace=wrap;html=1;" vertex="1" parent="1">
          <mxGeometry x="158" y="784" width="210" height="50" as="geometry" />
        </mxCell>
        <mxCell id="Ml1TIX4p95IZXYvKLM33-16" style="edgeStyle=orthogonalEdgeStyle;rounded=0;orthogonalLoop=1;jettySize=auto;html=1;entryX=0.5;entryY=0;entryDx=0;entryDy=0;" edge="1" parent="1" source="Ml1TIX4p95IZXYvKLM33-6" target="Ml1TIX4p95IZXYvKLM33-15">
          <mxGeometry relative="1" as="geometry" />
        </mxCell>
        <mxCell id="Ml1TIX4p95IZXYvKLM33-6" value="&lt;div&gt;Цикл А&lt;br&gt;&lt;/div&gt;&lt;div&gt;i от 1 до n - 1&lt;/div&gt;" style="shape=loopLimit;whiteSpace=wrap;html=1;" vertex="1" parent="1">
          <mxGeometry x="158" y="864" width="210" height="50" as="geometry" />
        </mxCell>
        <mxCell id="Ml1TIX4p95IZXYvKLM33-18" style="edgeStyle=orthogonalEdgeStyle;rounded=0;orthogonalLoop=1;jettySize=auto;html=1;entryX=0.5;entryY=1;entryDx=0;entryDy=0;" edge="1" parent="1" source="Ml1TIX4p95IZXYvKLM33-8" target="Ml1TIX4p95IZXYvKLM33-10">
          <mxGeometry relative="1" as="geometry" />
        </mxCell>
        <mxCell id="Ml1TIX4p95IZXYvKLM33-8" value="DFSrecursive(i, heads, visited)" style="shape=process;whiteSpace=wrap;html=1;backgroundOutline=1;" vertex="1" parent="1">
          <mxGeometry x="158" y="1044" width="210" height="50" as="geometry" />
        </mxCell>
        <mxCell id="Ml1TIX4p95IZXYvKLM33-9" style="edgeStyle=orthogonalEdgeStyle;rounded=0;orthogonalLoop=1;jettySize=auto;html=1;entryX=0.5;entryY=0;entryDx=0;entryDy=0;" edge="1" parent="1" source="Ml1TIX4p95IZXYvKLM33-10" target="Ml1TIX4p95IZXYvKLM33-14">
          <mxGeometry relative="1" as="geometry">
            <mxPoint x="265" y="1224" as="targetPoint" />
          </mxGeometry>
        </mxCell>
        <mxCell id="Ml1TIX4p95IZXYvKLM33-10" value="" style="shape=loopLimit;whiteSpace=wrap;html=1;rotation=-180;" vertex="1" parent="1">
          <mxGeometry x="158" y="1135" width="210" height="50" as="geometry" />
        </mxCell>
        <mxCell id="Ml1TIX4p95IZXYvKLM33-11" value="Цикл А" style="text;html=1;strokeColor=none;fillColor=none;align=center;verticalAlign=middle;whiteSpace=wrap;rounded=0;" vertex="1" parent="1">
          <mxGeometry x="233" y="1145" width="60" height="30" as="geometry" />
        </mxCell>
        <mxCell id="Ml1TIX4p95IZXYvKLM33-14" value="&lt;div&gt;DFS()&lt;br&gt;Конец&lt;br&gt;&lt;/div&gt;" style="ellipse;whiteSpace=wrap;html=1;" vertex="1" parent="1">
          <mxGeometry x="158" y="1226" width="210" height="60" as="geometry" />
        </mxCell>
        <mxCell id="Ml1TIX4p95IZXYvKLM33-17" style="edgeStyle=orthogonalEdgeStyle;rounded=0;orthogonalLoop=1;jettySize=auto;html=1;entryX=0.5;entryY=0;entryDx=0;entryDy=0;" edge="1" parent="1" source="Ml1TIX4p95IZXYvKLM33-15" target="Ml1TIX4p95IZXYvKLM33-8">
          <mxGeometry relative="1" as="geometry" />
        </mxCell>
        <mxCell id="Ml1TIX4p95IZXYvKLM33-20" style="edgeStyle=orthogonalEdgeStyle;rounded=0;orthogonalLoop=1;jettySize=auto;html=1;" edge="1" parent="1" source="Ml1TIX4p95IZXYvKLM33-15">
          <mxGeometry relative="1" as="geometry">
            <mxPoint x="264" y="1109" as="targetPoint" />
            <Array as="points">
              <mxPoint x="478" y="978" />
              <mxPoint x="478" y="1111" />
            </Array>
          </mxGeometry>
        </mxCell>
        <mxCell id="Ml1TIX4p95IZXYvKLM33-15" value="!visited[i]" style="rhombus;whiteSpace=wrap;html=1;" vertex="1" parent="1">
          <mxGeometry x="171.75" y="938" width="182.5" height="80" as="geometry" />
        </mxCell>
        <mxCell id="Ml1TIX4p95IZXYvKLM33-19" value="Да" style="text;html=1;strokeColor=none;fillColor=none;align=center;verticalAlign=middle;whiteSpace=wrap;rounded=0;" vertex="1" parent="1">
          <mxGeometry x="202" y="1009" width="60" height="30" as="geometry" />
        </mxCell>
        <mxCell id="Ml1TIX4p95IZXYvKLM33-21" value="Нет" style="text;html=1;strokeColor=none;fillColor=none;align=center;verticalAlign=middle;whiteSpace=wrap;rounded=0;" vertex="1" parent="1">
          <mxGeometry x="340" y="948" width="60" height="30" as="geometry" />
        </mxCell>
        <mxCell id="Ml1TIX4p95IZXYvKLM33-22" style="edgeStyle=orthogonalEdgeStyle;rounded=0;orthogonalLoop=1;jettySize=auto;html=1;entryX=0.5;entryY=0;entryDx=0;entryDy=0;" edge="1" parent="1" source="Ml1TIX4p95IZXYvKLM33-23" target="Ml1TIX4p95IZXYvKLM33-25">
          <mxGeometry relative="1" as="geometry" />
        </mxCell>
        <mxCell id="Ml1TIX4p95IZXYvKLM33-23" value="&lt;div&gt;DFSrecursive(i, heads, visited) &lt;br&gt;Начало&lt;br&gt;&lt;/div&gt;" style="ellipse;whiteSpace=wrap;html=1;" vertex="1" parent="1">
          <mxGeometry x="560" y="709" width="210" height="60" as="geometry" />
        </mxCell>
        <mxCell id="Ml1TIX4p95IZXYvKLM33-24" style="edgeStyle=orthogonalEdgeStyle;rounded=0;orthogonalLoop=1;jettySize=auto;html=1;" edge="1" parent="1" source="Ml1TIX4p95IZXYvKLM33-25">
          <mxGeometry relative="1" as="geometry">
            <mxPoint x="665" y="879" as="targetPoint" />
          </mxGeometry>
        </mxCell>
        <mxCell id="Ml1TIX4p95IZXYvKLM33-25" value="visited[i] = true" style="rounded=0;whiteSpace=wrap;html=1;" vertex="1" parent="1">
          <mxGeometry x="560" y="799" width="210" height="50" as="geometry" />
        </mxCell>
        <mxCell id="Ml1TIX4p95IZXYvKLM33-41" style="edgeStyle=orthogonalEdgeStyle;rounded=0;orthogonalLoop=1;jettySize=auto;html=1;entryX=0.5;entryY=0;entryDx=0;entryDy=0;" edge="1" parent="1" source="Ml1TIX4p95IZXYvKLM33-39" target="Ml1TIX4p95IZXYvKLM33-40">
          <mxGeometry relative="1" as="geometry" />
        </mxCell>
        <mxCell id="Ml1TIX4p95IZXYvKLM33-39" value="i ," style="shape=parallelogram;perimeter=parallelogramPerimeter;whiteSpace=wrap;html=1;fixedSize=1;" vertex="1" parent="1">
          <mxGeometry x="563.75" y="879" width="202.5" height="47" as="geometry" />
        </mxCell>
        <mxCell id="Ml1TIX4p95IZXYvKLM33-43" style="edgeStyle=orthogonalEdgeStyle;rounded=0;orthogonalLoop=1;jettySize=auto;html=1;entryX=0.5;entryY=0;entryDx=0;entryDy=0;" edge="1" parent="1" source="Ml1TIX4p95IZXYvKLM33-40" target="Ml1TIX4p95IZXYvKLM33-42">
          <mxGeometry relative="1" as="geometry" />
        </mxCell>
        <mxCell id="Ml1TIX4p95IZXYvKLM33-40" value="Node cur = heads[i]" style="rounded=0;whiteSpace=wrap;html=1;" vertex="1" parent="1">
          <mxGeometry x="560" y="956" width="210" height="50" as="geometry" />
        </mxCell>
        <mxCell id="Ml1TIX4p95IZXYvKLM33-54" style="edgeStyle=orthogonalEdgeStyle;rounded=0;orthogonalLoop=1;jettySize=auto;html=1;entryX=0.5;entryY=0;entryDx=0;entryDy=0;" edge="1" parent="1" source="Ml1TIX4p95IZXYvKLM33-42" target="Ml1TIX4p95IZXYvKLM33-48">
          <mxGeometry relative="1" as="geometry" />
        </mxCell>
        <mxCell id="Ml1TIX4p95IZXYvKLM33-42" value="&lt;div&gt;Цикл А&lt;br&gt;&lt;/div&gt;&lt;div&gt;cur != null&lt;br&gt;&lt;/div&gt;" style="shape=loopLimit;whiteSpace=wrap;html=1;" vertex="1" parent="1">
          <mxGeometry x="560" y="1042" width="210" height="50" as="geometry" />
        </mxCell>
        <mxCell id="Ml1TIX4p95IZXYvKLM33-44" style="edgeStyle=orthogonalEdgeStyle;rounded=0;orthogonalLoop=1;jettySize=auto;html=1;entryX=0.5;entryY=1;entryDx=0;entryDy=0;" edge="1" parent="1" source="Ml1TIX4p95IZXYvKLM33-45">
          <mxGeometry relative="1" as="geometry">
            <mxPoint x="663" y="1313" as="targetPoint" />
          </mxGeometry>
        </mxCell>
        <mxCell id="Ml1TIX4p95IZXYvKLM33-45" value="DFSrecursive(cur.num, heads, visited)" style="shape=process;whiteSpace=wrap;html=1;backgroundOutline=1;" vertex="1" parent="1">
          <mxGeometry x="558" y="1222" width="210" height="50" as="geometry" />
        </mxCell>
        <mxCell id="Ml1TIX4p95IZXYvKLM33-46" value="Цикл А" style="text;html=1;strokeColor=none;fillColor=none;align=center;verticalAlign=middle;whiteSpace=wrap;rounded=0;" vertex="1" parent="1">
          <mxGeometry x="629.25" y="1417.5" width="60" height="30" as="geometry" />
        </mxCell>
        <mxCell id="Ml1TIX4p95IZXYvKLM33-56" style="edgeStyle=orthogonalEdgeStyle;rounded=0;orthogonalLoop=1;jettySize=auto;html=1;" edge="1" parent="1" source="Ml1TIX4p95IZXYvKLM33-48">
          <mxGeometry relative="1" as="geometry">
            <mxPoint x="665" y="1298" as="targetPoint" />
            <Array as="points">
              <mxPoint x="788" y="1160" />
              <mxPoint x="788" y="1298" />
            </Array>
          </mxGeometry>
        </mxCell>
        <mxCell id="Ml1TIX4p95IZXYvKLM33-48" value="!visited[cur.num]" style="rhombus;whiteSpace=wrap;html=1;" vertex="1" parent="1">
          <mxGeometry x="573.75" y="1120" width="182.5" height="80" as="geometry" />
        </mxCell>
        <mxCell id="Ml1TIX4p95IZXYvKLM33-49" value="Да" style="text;html=1;strokeColor=none;fillColor=none;align=center;verticalAlign=middle;whiteSpace=wrap;rounded=0;" vertex="1" parent="1">
          <mxGeometry x="587" y="1187" width="60" height="30" as="geometry" />
        </mxCell>
        <mxCell id="Ml1TIX4p95IZXYvKLM33-50" value="Нет" style="text;html=1;strokeColor=none;fillColor=none;align=center;verticalAlign=middle;whiteSpace=wrap;rounded=0;" vertex="1" parent="1">
          <mxGeometry x="740" y="1126" width="60" height="30" as="geometry" />
        </mxCell>
        <mxCell id="Ml1TIX4p95IZXYvKLM33-55" style="edgeStyle=orthogonalEdgeStyle;rounded=0;orthogonalLoop=1;jettySize=auto;html=1;entryX=0.51;entryY=0.009;entryDx=0;entryDy=0;entryPerimeter=0;" edge="1" parent="1" source="Ml1TIX4p95IZXYvKLM33-48" target="Ml1TIX4p95IZXYvKLM33-45">
          <mxGeometry relative="1" as="geometry" />
        </mxCell>
        <mxCell id="Ml1TIX4p95IZXYvKLM33-57" value="cur = cur.next" style="rounded=0;whiteSpace=wrap;html=1;" vertex="1" parent="1">
          <mxGeometry x="560" y="1316" width="210" height="50" as="geometry" />
        </mxCell>
        <mxCell id="Ml1TIX4p95IZXYvKLM33-58" style="edgeStyle=orthogonalEdgeStyle;rounded=0;orthogonalLoop=1;jettySize=auto;html=1;entryX=0.473;entryY=0.947;entryDx=0;entryDy=0;entryPerimeter=0;" edge="1" parent="1" source="Ml1TIX4p95IZXYvKLM33-57" target="Ml1TIX4p95IZXYvKLM33-52">
          <mxGeometry relative="1" as="geometry" />
        </mxCell>
        <mxCell id="Ml1TIX4p95IZXYvKLM33-59" value="&lt;div&gt;DFSrecursive(i, heads, visited) &lt;br&gt;Начало&lt;br&gt;&lt;/div&gt;" style="ellipse;whiteSpace=wrap;html=1;" vertex="1" parent="1">
          <mxGeometry x="558" y="1490" width="210" height="60" as="geometry" />
        </mxCell>
        <mxCell id="Ml1TIX4p95IZXYvKLM33-60" style="edgeStyle=orthogonalEdgeStyle;rounded=0;orthogonalLoop=1;jettySize=auto;html=1;entryX=0.479;entryY=0.009;entryDx=0;entryDy=0;entryPerimeter=0;" edge="1" parent="1" source="Ml1TIX4p95IZXYvKLM33-52" target="Ml1TIX4p95IZXYvKLM33-59">
          <mxGeometry relative="1" as="geometry" />
        </mxCell>
        <mxCell id="Ml1TIX4p95IZXYvKLM33-62" style="edgeStyle=orthogonalEdgeStyle;rounded=0;orthogonalLoop=1;jettySize=auto;html=1;" edge="1" parent="1" source="Ml1TIX4p95IZXYvKLM33-61" target="Ml1TIX4p95IZXYvKLM33-63">
          <mxGeometry relative="1" as="geometry">
            <mxPoint x="1018.9999999999998" y="806.6551724137933" as="targetPoint" />
          </mxGeometry>
        </mxCell>
        <mxCell id="Ml1TIX4p95IZXYvKLM33-61" value="add(Q, value) &lt;br&gt;&lt;div&gt;Начало&lt;br&gt;&lt;/div&gt;" style="ellipse;whiteSpace=wrap;html=1;" vertex="1" parent="1">
          <mxGeometry x="918" y="709" width="200" height="54" as="geometry" />
        </mxCell>
        <mxCell id="Ml1TIX4p95IZXYvKLM33-65" style="edgeStyle=orthogonalEdgeStyle;rounded=0;orthogonalLoop=1;jettySize=auto;html=1;entryX=0.5;entryY=0;entryDx=0;entryDy=0;" edge="1" parent="1" source="Ml1TIX4p95IZXYvKLM33-63" target="Ml1TIX4p95IZXYvKLM33-64">
          <mxGeometry relative="1" as="geometry" />
        </mxCell>
        <mxCell id="Ml1TIX4p95IZXYvKLM33-63" value="Q.arr[Q.top] = value&lt;div&gt;Q.top++&lt;br&gt;&lt;/div&gt;" style="rounded=0;whiteSpace=wrap;html=1;" vertex="1" parent="1">
          <mxGeometry x="949" y="809" width="140" height="38" as="geometry" />
        </mxCell>
        <mxCell id="Ml1TIX4p95IZXYvKLM33-64" value="add() &lt;br&gt;&lt;div&gt;Конец&lt;br&gt;&lt;/div&gt;" style="ellipse;whiteSpace=wrap;html=1;" vertex="1" parent="1">
          <mxGeometry x="920" y="883" width="198" height="50" as="geometry" />
        </mxCell>
        <mxCell id="Ml1TIX4p95IZXYvKLM33-66" style="edgeStyle=orthogonalEdgeStyle;rounded=0;orthogonalLoop=1;jettySize=auto;html=1;" edge="1" parent="1" source="Ml1TIX4p95IZXYvKLM33-67" target="Ml1TIX4p95IZXYvKLM33-69">
          <mxGeometry relative="1" as="geometry">
            <mxPoint x="1276.9999999999998" y="804.6551724137933" as="targetPoint" />
          </mxGeometry>
        </mxCell>
        <mxCell id="Ml1TIX4p95IZXYvKLM33-67" value="poll(Q) &lt;br&gt;&lt;div&gt;Начало&lt;br&gt;&lt;/div&gt;" style="ellipse;whiteSpace=wrap;html=1;" vertex="1" parent="1">
          <mxGeometry x="1176" y="707" width="200" height="54" as="geometry" />
        </mxCell>
        <mxCell id="Ml1TIX4p95IZXYvKLM33-68" style="edgeStyle=orthogonalEdgeStyle;rounded=0;orthogonalLoop=1;jettySize=auto;html=1;entryX=0.5;entryY=0;entryDx=0;entryDy=0;" edge="1" parent="1" source="Ml1TIX4p95IZXYvKLM33-69" target="Ml1TIX4p95IZXYvKLM33-70">
          <mxGeometry relative="1" as="geometry" />
        </mxCell>
        <mxCell id="Ml1TIX4p95IZXYvKLM33-69" value="&lt;div&gt;poll = Q.arr[top]&lt;/div&gt;&lt;div&gt;Q.top--&lt;br&gt;&lt;/div&gt;" style="rounded=0;whiteSpace=wrap;html=1;" vertex="1" parent="1">
          <mxGeometry x="1207" y="807" width="140" height="38" as="geometry" />
        </mxCell>
        <mxCell id="Ml1TIX4p95IZXYvKLM33-70" value="poll() &lt;br&gt;&lt;div&gt;Конец&lt;br&gt;&lt;/div&gt;" style="ellipse;whiteSpace=wrap;html=1;" vertex="1" parent="1">
          <mxGeometry x="1178" y="881" width="198" height="50" as="geometry" />
        </mxCell>
        <mxCell id="Ml1TIX4p95IZXYvKLM33-71" style="edgeStyle=orthogonalEdgeStyle;rounded=0;orthogonalLoop=1;jettySize=auto;html=1;" edge="1" parent="1" source="Ml1TIX4p95IZXYvKLM33-72" target="Ml1TIX4p95IZXYvKLM33-74">
          <mxGeometry relative="1" as="geometry">
            <mxPoint x="1521.9999999999998" y="799.6551724137933" as="targetPoint" />
          </mxGeometry>
        </mxCell>
        <mxCell id="Ml1TIX4p95IZXYvKLM33-72" value="isEmpty(Q) &lt;br&gt;&lt;div&gt;Начало&lt;br&gt;&lt;/div&gt;" style="ellipse;whiteSpace=wrap;html=1;" vertex="1" parent="1">
          <mxGeometry x="1421" y="702" width="200" height="54" as="geometry" />
        </mxCell>
        <mxCell id="Ml1TIX4p95IZXYvKLM33-73" style="edgeStyle=orthogonalEdgeStyle;rounded=0;orthogonalLoop=1;jettySize=auto;html=1;entryX=0.5;entryY=0;entryDx=0;entryDy=0;" edge="1" parent="1" source="Ml1TIX4p95IZXYvKLM33-74" target="Ml1TIX4p95IZXYvKLM33-75">
          <mxGeometry relative="1" as="geometry" />
        </mxCell>
        <mxCell id="Ml1TIX4p95IZXYvKLM33-74" value="Q = Q.top == 0" style="rounded=0;whiteSpace=wrap;html=1;" vertex="1" parent="1">
          <mxGeometry x="1452" y="802" width="140" height="38" as="geometry" />
        </mxCell>
        <mxCell id="Ml1TIX4p95IZXYvKLM33-75" value="poll() &lt;br&gt;&lt;div&gt;Конец&lt;br&gt;&lt;/div&gt;" style="ellipse;whiteSpace=wrap;html=1;" vertex="1" parent="1">
          <mxGeometry x="1423" y="876" width="198" height="50" as="geometry" />
        </mxCell>
        <mxCell id="Ml1TIX4p95IZXYvKLM33-81" style="edgeStyle=orthogonalEdgeStyle;rounded=0;orthogonalLoop=1;jettySize=auto;html=1;entryX=0.5;entryY=0;entryDx=0;entryDy=0;" edge="1" parent="1" source="Ml1TIX4p95IZXYvKLM33-76" target="Ml1TIX4p95IZXYvKLM33-80">
          <mxGeometry relative="1" as="geometry" />
        </mxCell>
        <mxCell id="Ml1TIX4p95IZXYvKLM33-76" value="BFS(heads, n) &lt;br&gt;&lt;div&gt;Начало&lt;br&gt;&lt;/div&gt;" style="ellipse;whiteSpace=wrap;html=1;" vertex="1" parent="1">
          <mxGeometry x="920" y="978" width="200" height="54" as="geometry" />
        </mxCell>
        <mxCell id="Ml1TIX4p95IZXYvKLM33-83" style="edgeStyle=orthogonalEdgeStyle;rounded=0;orthogonalLoop=1;jettySize=auto;html=1;entryX=0.5;entryY=0;entryDx=0;entryDy=0;" edge="1" parent="1" source="Ml1TIX4p95IZXYvKLM33-80" target="Ml1TIX4p95IZXYvKLM33-82">
          <mxGeometry relative="1" as="geometry" />
        </mxCell>
        <mxCell id="Ml1TIX4p95IZXYvKLM33-80" value="visited = boolean[n]" style="rounded=0;whiteSpace=wrap;html=1;" vertex="1" parent="1">
          <mxGeometry x="930.5" y="1066" width="179" height="38" as="geometry" />
        </mxCell>
        <mxCell id="Ml1TIX4p95IZXYvKLM33-82" value="&lt;div&gt;Цикл А&lt;br&gt;&lt;/div&gt;&lt;div&gt;i от 1 до n - 1&lt;/div&gt;" style="shape=loopLimit;whiteSpace=wrap;html=1;" vertex="1" parent="1">
          <mxGeometry x="915" y="1132" width="210" height="50" as="geometry" />
        </mxCell>
        <mxCell id="Ml1TIX4p95IZXYvKLM33-88" style="edgeStyle=orthogonalEdgeStyle;rounded=0;orthogonalLoop=1;jettySize=auto;html=1;entryX=0.5;entryY=0;entryDx=0;entryDy=0;" edge="1" parent="1" source="Ml1TIX4p95IZXYvKLM33-84" target="Ml1TIX4p95IZXYvKLM33-87">
          <mxGeometry relative="1" as="geometry" />
        </mxCell>
        <mxCell id="Ml1TIX4p95IZXYvKLM33-122" style="edgeStyle=orthogonalEdgeStyle;rounded=0;orthogonalLoop=1;jettySize=auto;html=1;" edge="1" parent="1" source="Ml1TIX4p95IZXYvKLM33-84">
          <mxGeometry relative="1" as="geometry">
            <mxPoint x="1026" y="2272" as="targetPoint" />
            <Array as="points">
              <mxPoint x="1289" y="1245" />
              <mxPoint x="1289" y="2273" />
              <mxPoint x="1192" y="2273" />
            </Array>
          </mxGeometry>
        </mxCell>
        <mxCell id="Ml1TIX4p95IZXYvKLM33-84" value="!visited[i]" style="rhombus;whiteSpace=wrap;html=1;" vertex="1" parent="1">
          <mxGeometry x="927.75" y="1217" width="182.5" height="56" as="geometry" />
        </mxCell>
        <mxCell id="Ml1TIX4p95IZXYvKLM33-85" style="edgeStyle=orthogonalEdgeStyle;rounded=0;orthogonalLoop=1;jettySize=auto;html=1;entryX=0.51;entryY=0.043;entryDx=0;entryDy=0;entryPerimeter=0;" edge="1" parent="1" source="Ml1TIX4p95IZXYvKLM33-82" target="Ml1TIX4p95IZXYvKLM33-84">
          <mxGeometry relative="1" as="geometry" />
        </mxCell>
        <mxCell id="Ml1TIX4p95IZXYvKLM33-91" style="edgeStyle=orthogonalEdgeStyle;rounded=0;orthogonalLoop=1;jettySize=auto;html=1;entryX=0.5;entryY=0;entryDx=0;entryDy=0;" edge="1" parent="1" source="Ml1TIX4p95IZXYvKLM33-87" target="Ml1TIX4p95IZXYvKLM33-90">
          <mxGeometry relative="1" as="geometry" />
        </mxCell>
        <mxCell id="Ml1TIX4p95IZXYvKLM33-87" value="&lt;div&gt;Queue queue = new Queue(n)&lt;/div&gt;&lt;div&gt;add(queue, i)&lt;/div&gt;&lt;div&gt;visited[i] = true&lt;br&gt;&lt;/div&gt;" style="rounded=0;whiteSpace=wrap;html=1;" vertex="1" parent="1">
          <mxGeometry x="929.5" y="1307" width="179" height="75" as="geometry" />
        </mxCell>
        <mxCell id="Ml1TIX4p95IZXYvKLM33-93" style="edgeStyle=orthogonalEdgeStyle;rounded=0;orthogonalLoop=1;jettySize=auto;html=1;entryX=0.5;entryY=0;entryDx=0;entryDy=0;" edge="1" parent="1" source="Ml1TIX4p95IZXYvKLM33-90" target="Ml1TIX4p95IZXYvKLM33-92">
          <mxGeometry relative="1" as="geometry" />
        </mxCell>
        <mxCell id="Ml1TIX4p95IZXYvKLM33-90" value="&lt;div&gt;Цикл Б&lt;/div&gt;&lt;div&gt;isEmpty(queue)&lt;br&gt;&lt;/div&gt;" style="shape=loopLimit;whiteSpace=wrap;html=1;" vertex="1" parent="1">
          <mxGeometry x="914" y="1415" width="210" height="50" as="geometry" />
        </mxCell>
        <mxCell id="Ml1TIX4p95IZXYvKLM33-95" style="edgeStyle=orthogonalEdgeStyle;rounded=0;orthogonalLoop=1;jettySize=auto;html=1;entryX=0.5;entryY=0;entryDx=0;entryDy=0;" edge="1" parent="1" source="Ml1TIX4p95IZXYvKLM33-92" target="Ml1TIX4p95IZXYvKLM33-94">
          <mxGeometry relative="1" as="geometry" />
        </mxCell>
        <mxCell id="Ml1TIX4p95IZXYvKLM33-92" value="cur = poll(queue)" style="rounded=0;whiteSpace=wrap;html=1;" vertex="1" parent="1">
          <mxGeometry x="929.5" y="1500" width="179" height="38" as="geometry" />
        </mxCell>
        <mxCell id="Ml1TIX4p95IZXYvKLM33-97" style="edgeStyle=orthogonalEdgeStyle;rounded=0;orthogonalLoop=1;jettySize=auto;html=1;" edge="1" parent="1">
          <mxGeometry relative="1" as="geometry">
            <mxPoint x="1016.258064516129" y="1611" as="sourcePoint" />
            <mxPoint x="1022" y="1639" as="targetPoint" />
          </mxGeometry>
        </mxCell>
        <mxCell id="Ml1TIX4p95IZXYvKLM33-94" value="i ," style="shape=parallelogram;perimeter=parallelogramPerimeter;whiteSpace=wrap;html=1;fixedSize=1;" vertex="1" parent="1">
          <mxGeometry x="918" y="1570" width="202.5" height="41" as="geometry" />
        </mxCell>
        <mxCell id="Ml1TIX4p95IZXYvKLM33-101" style="edgeStyle=orthogonalEdgeStyle;rounded=0;orthogonalLoop=1;jettySize=auto;html=1;entryX=0.5;entryY=0;entryDx=0;entryDy=0;" edge="1" parent="1" source="Ml1TIX4p95IZXYvKLM33-96" target="Ml1TIX4p95IZXYvKLM33-100">
          <mxGeometry relative="1" as="geometry" />
        </mxCell>
        <mxCell id="Ml1TIX4p95IZXYvKLM33-96" value="&lt;div&gt;Цикл В&lt;br&gt;&lt;/div&gt;&lt;div&gt;curNode != null&lt;br&gt;&lt;/div&gt;" style="shape=loopLimit;whiteSpace=wrap;html=1;" vertex="1" parent="1">
          <mxGeometry x="914" y="1702" width="210" height="50" as="geometry" />
        </mxCell>
        <mxCell id="Ml1TIX4p95IZXYvKLM33-99" style="edgeStyle=orthogonalEdgeStyle;rounded=0;orthogonalLoop=1;jettySize=auto;html=1;entryX=0.5;entryY=0;entryDx=0;entryDy=0;" edge="1" parent="1" source="Ml1TIX4p95IZXYvKLM33-98" target="Ml1TIX4p95IZXYvKLM33-96">
          <mxGeometry relative="1" as="geometry" />
        </mxCell>
        <mxCell id="Ml1TIX4p95IZXYvKLM33-98" value="Node curNode = heads[cur]" style="rounded=0;whiteSpace=wrap;html=1;" vertex="1" parent="1">
          <mxGeometry x="929.5" y="1639" width="179" height="38" as="geometry" />
        </mxCell>
        <mxCell id="Ml1TIX4p95IZXYvKLM33-103" style="edgeStyle=orthogonalEdgeStyle;rounded=0;orthogonalLoop=1;jettySize=auto;html=1;entryX=0.5;entryY=0;entryDx=0;entryDy=0;" edge="1" parent="1" source="Ml1TIX4p95IZXYvKLM33-100" target="Ml1TIX4p95IZXYvKLM33-102">
          <mxGeometry relative="1" as="geometry" />
        </mxCell>
        <mxCell id="Ml1TIX4p95IZXYvKLM33-108" style="edgeStyle=orthogonalEdgeStyle;rounded=0;orthogonalLoop=1;jettySize=auto;html=1;" edge="1" parent="1" source="Ml1TIX4p95IZXYvKLM33-100">
          <mxGeometry relative="1" as="geometry">
            <mxPoint x="1022" y="1962" as="targetPoint" />
            <Array as="points">
              <mxPoint x="1154" y="1813" />
              <mxPoint x="1154" y="1963" />
              <mxPoint x="1022" y="1963" />
            </Array>
          </mxGeometry>
        </mxCell>
        <mxCell id="Ml1TIX4p95IZXYvKLM33-100" value="!visited[curNode.num]" style="rhombus;whiteSpace=wrap;html=1;" vertex="1" parent="1">
          <mxGeometry x="928.5" y="1783" width="182.5" height="60" as="geometry" />
        </mxCell>
        <mxCell id="Ml1TIX4p95IZXYvKLM33-107" style="edgeStyle=orthogonalEdgeStyle;rounded=0;orthogonalLoop=1;jettySize=auto;html=1;entryX=0.5;entryY=0;entryDx=0;entryDy=0;" edge="1" parent="1" source="Ml1TIX4p95IZXYvKLM33-102" target="Ml1TIX4p95IZXYvKLM33-106">
          <mxGeometry relative="1" as="geometry" />
        </mxCell>
        <mxCell id="Ml1TIX4p95IZXYvKLM33-102" value="&lt;div&gt;visited[curNode.num] = true&lt;/div&gt;&lt;div&gt;add(queue, curNode.num)&lt;br&gt;&lt;/div&gt;" style="rounded=0;whiteSpace=wrap;html=1;" vertex="1" parent="1">
          <mxGeometry x="930.5" y="1868" width="179" height="78" as="geometry" />
        </mxCell>
        <mxCell id="Ml1TIX4p95IZXYvKLM33-104" value="Да" style="text;html=1;strokeColor=none;fillColor=none;align=center;verticalAlign=middle;whiteSpace=wrap;rounded=0;" vertex="1" parent="1">
          <mxGeometry x="960" y="1838" width="60" height="30" as="geometry" />
        </mxCell>
        <mxCell id="Ml1TIX4p95IZXYvKLM33-105" value="Да" style="text;html=1;strokeColor=none;fillColor=none;align=center;verticalAlign=middle;whiteSpace=wrap;rounded=0;" vertex="1" parent="1">
          <mxGeometry x="964" y="1272" width="60" height="30" as="geometry" />
        </mxCell>
        <mxCell id="Ml1TIX4p95IZXYvKLM33-113" style="edgeStyle=orthogonalEdgeStyle;rounded=0;orthogonalLoop=1;jettySize=auto;html=1;entryX=0.5;entryY=1;entryDx=0;entryDy=0;" edge="1" parent="1" source="Ml1TIX4p95IZXYvKLM33-106" target="Ml1TIX4p95IZXYvKLM33-110">
          <mxGeometry relative="1" as="geometry" />
        </mxCell>
        <mxCell id="Ml1TIX4p95IZXYvKLM33-106" value="curNode = curNode.next" style="rounded=0;whiteSpace=wrap;html=1;" vertex="1" parent="1">
          <mxGeometry x="931" y="1987" width="179" height="43" as="geometry" />
        </mxCell>
        <mxCell id="Ml1TIX4p95IZXYvKLM33-109" value="Нет" style="text;html=1;strokeColor=none;fillColor=none;align=center;verticalAlign=middle;whiteSpace=wrap;rounded=0;" vertex="1" parent="1">
          <mxGeometry x="1089" y="1783" width="60" height="30" as="geometry" />
        </mxCell>
        <mxCell id="Ml1TIX4p95IZXYvKLM33-116" style="edgeStyle=orthogonalEdgeStyle;rounded=0;orthogonalLoop=1;jettySize=auto;html=1;entryX=0.5;entryY=1;entryDx=0;entryDy=0;" edge="1" parent="1" source="Ml1TIX4p95IZXYvKLM33-110" target="Ml1TIX4p95IZXYvKLM33-114">
          <mxGeometry relative="1" as="geometry" />
        </mxCell>
        <mxCell id="Ml1TIX4p95IZXYvKLM33-110" value="" style="shape=loopLimit;whiteSpace=wrap;html=1;rotation=-180;" vertex="1" parent="1">
          <mxGeometry x="915.75" y="2061" width="210" height="49" as="geometry" />
        </mxCell>
        <mxCell id="Ml1TIX4p95IZXYvKLM33-111" value="Цикл В" style="text;html=1;strokeColor=none;fillColor=none;align=center;verticalAlign=middle;whiteSpace=wrap;rounded=0;" vertex="1" parent="1">
          <mxGeometry x="989.75" y="2070.5" width="60" height="30" as="geometry" />
        </mxCell>
        <mxCell id="Ml1TIX4p95IZXYvKLM33-114" value="" style="shape=loopLimit;whiteSpace=wrap;html=1;rotation=-180;" vertex="1" parent="1">
          <mxGeometry x="915.75" y="2137" width="210" height="49" as="geometry" />
        </mxCell>
        <mxCell id="Ml1TIX4p95IZXYvKLM33-115" value="Цикл Б" style="text;html=1;strokeColor=none;fillColor=none;align=center;verticalAlign=middle;whiteSpace=wrap;rounded=0;" vertex="1" parent="1">
          <mxGeometry x="989.75" y="2146.5" width="60" height="30" as="geometry" />
        </mxCell>
        <mxCell id="Ml1TIX4p95IZXYvKLM33-121" style="edgeStyle=orthogonalEdgeStyle;rounded=0;orthogonalLoop=1;jettySize=auto;html=1;" edge="1" parent="1" source="Ml1TIX4p95IZXYvKLM33-117">
          <mxGeometry relative="1" as="geometry">
            <mxPoint x="1026" y="2283" as="targetPoint" />
          </mxGeometry>
        </mxCell>
        <mxCell id="Ml1TIX4p95IZXYvKLM33-117" value="" style="shape=loopLimit;whiteSpace=wrap;html=1;rotation=-180;" vertex="1" parent="1">
          <mxGeometry x="921" y="2211" width="210" height="49" as="geometry" />
        </mxCell>
        <mxCell id="Ml1TIX4p95IZXYvKLM33-118" value="Цикл А" style="text;html=1;strokeColor=none;fillColor=none;align=center;verticalAlign=middle;whiteSpace=wrap;rounded=0;" vertex="1" parent="1">
          <mxGeometry x="995" y="2219.5" width="60" height="30" as="geometry" />
        </mxCell>
        <mxCell id="Ml1TIX4p95IZXYvKLM33-119" style="edgeStyle=orthogonalEdgeStyle;rounded=0;orthogonalLoop=1;jettySize=auto;html=1;entryX=0.526;entryY=0.991;entryDx=0;entryDy=0;entryPerimeter=0;" edge="1" parent="1" source="Ml1TIX4p95IZXYvKLM33-114" target="Ml1TIX4p95IZXYvKLM33-117">
          <mxGeometry relative="1" as="geometry" />
        </mxCell>
        <mxCell id="Ml1TIX4p95IZXYvKLM33-120" value="BFS() &lt;br&gt;&lt;div&gt;Конец&lt;br&gt;&lt;/div&gt;" style="ellipse;whiteSpace=wrap;html=1;" vertex="1" parent="1">
          <mxGeometry x="924" y="2284" width="200" height="54" as="geometry" />
        </mxCell>
        <mxCell id="Ml1TIX4p95IZXYvKLM33-123" style="edgeStyle=orthogonalEdgeStyle;rounded=0;orthogonalLoop=1;jettySize=auto;html=1;" edge="1" parent="1" source="Ml1TIX4p95IZXYvKLM33-124">
          <mxGeometry relative="1" as="geometry">
            <mxPoint x="1773" y="802" as="targetPoint" />
          </mxGeometry>
        </mxCell>
        <mxCell id="Ml1TIX4p95IZXYvKLM33-124" value="fillHead(int[] heads, n) &lt;br&gt;&lt;div&gt;Начало&lt;br&gt;&lt;/div&gt;" style="ellipse;whiteSpace=wrap;html=1;" vertex="1" parent="1">
          <mxGeometry x="1672" y="702" width="200" height="54" as="geometry" />
        </mxCell>
        <mxCell id="Ml1TIX4p95IZXYvKLM33-127" value="fillHead&lt;br&gt;&lt;div&gt;Конец&lt;br&gt;&lt;/div&gt;" style="ellipse;whiteSpace=wrap;html=1;" vertex="1" parent="1">
          <mxGeometry x="1676" y="1200" width="198" height="50" as="geometry" />
        </mxCell>
        <mxCell id="Ml1TIX4p95IZXYvKLM33-128" value="Нет" style="text;html=1;strokeColor=none;fillColor=none;align=center;verticalAlign=middle;whiteSpace=wrap;rounded=0;" vertex="1" parent="1">
          <mxGeometry x="1098" y="1215" width="60" height="30" as="geometry" />
        </mxCell>
        <mxCell id="Ml1TIX4p95IZXYvKLM33-131" value="" style="edgeStyle=orthogonalEdgeStyle;rounded=0;orthogonalLoop=1;jettySize=auto;html=1;" edge="1" parent="1" source="Ml1TIX4p95IZXYvKLM33-129" target="Ml1TIX4p95IZXYvKLM33-130">
          <mxGeometry relative="1" as="geometry" />
        </mxCell>
        <mxCell id="Ml1TIX4p95IZXYvKLM33-134" style="edgeStyle=orthogonalEdgeStyle;rounded=0;orthogonalLoop=1;jettySize=auto;html=1;entryX=0.5;entryY=0;entryDx=0;entryDy=0;" edge="1" parent="1" source="Ml1TIX4p95IZXYvKLM33-129" target="Ml1TIX4p95IZXYvKLM33-132">
          <mxGeometry relative="1" as="geometry" />
        </mxCell>
        <mxCell id="Ml1TIX4p95IZXYvKLM33-129" value="n == 0" style="rhombus;whiteSpace=wrap;html=1;" vertex="1" parent="1">
          <mxGeometry x="1680.75" y="802" width="182.5" height="56" as="geometry" />
        </mxCell>
        <mxCell id="Ml1TIX4p95IZXYvKLM33-130" value="fillHead = null" style="whiteSpace=wrap;html=1;" vertex="1" parent="1">
          <mxGeometry x="1948" y="872.5" width="120" height="42.5" as="geometry" />
        </mxCell>
        <mxCell id="Ml1TIX4p95IZXYvKLM33-132" value="&lt;div&gt;Node head = new Node(heads[0])&lt;/div&gt;Node cur = head" style="rounded=0;whiteSpace=wrap;html=1;" vertex="1" parent="1">
          <mxGeometry x="1680.75" y="890" width="181" height="55" as="geometry" />
        </mxCell>
        <mxCell id="Ml1TIX4p95IZXYvKLM33-135" style="edgeStyle=orthogonalEdgeStyle;rounded=0;orthogonalLoop=1;jettySize=auto;html=1;entryX=0.5;entryY=0;entryDx=0;entryDy=0;" edge="1" parent="1" source="Ml1TIX4p95IZXYvKLM33-136">
          <mxGeometry relative="1" as="geometry">
            <mxPoint x="1775" y="1036" as="targetPoint" />
          </mxGeometry>
        </mxCell>
        <mxCell id="Ml1TIX4p95IZXYvKLM33-136" value="&lt;div&gt;Цикл А&lt;br&gt;&lt;/div&gt;&lt;div&gt;i от 1 до n - 1&lt;/div&gt;" style="shape=loopLimit;whiteSpace=wrap;html=1;" vertex="1" parent="1">
          <mxGeometry x="1670" y="962" width="210" height="50" as="geometry" />
        </mxCell>
        <mxCell id="Ml1TIX4p95IZXYvKLM33-137" style="edgeStyle=orthogonalEdgeStyle;rounded=0;orthogonalLoop=1;jettySize=auto;html=1;entryX=0.5;entryY=1;entryDx=0;entryDy=0;" edge="1" parent="1" source="Ml1TIX4p95IZXYvKLM33-138" target="Ml1TIX4p95IZXYvKLM33-139">
          <mxGeometry relative="1" as="geometry" />
        </mxCell>
        <mxCell id="Ml1TIX4p95IZXYvKLM33-138" value="&lt;div&gt;cur.next = new Node(heads[i])&lt;/div&gt;Node cur = head" style="shape=process;whiteSpace=wrap;html=1;backgroundOutline=1;" vertex="1" parent="1">
          <mxGeometry x="1671" y="1035" width="210" height="61" as="geometry" />
        </mxCell>
        <mxCell id="Ml1TIX4p95IZXYvKLM33-148" style="edgeStyle=orthogonalEdgeStyle;rounded=0;orthogonalLoop=1;jettySize=auto;html=1;entryX=0.5;entryY=0;entryDx=0;entryDy=0;" edge="1" parent="1" source="Ml1TIX4p95IZXYvKLM33-139" target="Ml1TIX4p95IZXYvKLM33-127">
          <mxGeometry relative="1" as="geometry" />
        </mxCell>
        <mxCell id="Ml1TIX4p95IZXYvKLM33-139" value="" style="shape=loopLimit;whiteSpace=wrap;html=1;rotation=-180;" vertex="1" parent="1">
          <mxGeometry x="1670" y="1125" width="210" height="50" as="geometry" />
        </mxCell>
        <mxCell id="Ml1TIX4p95IZXYvKLM33-140" value="Цикл А" style="text;html=1;strokeColor=none;fillColor=none;align=center;verticalAlign=middle;whiteSpace=wrap;rounded=0;" vertex="1" parent="1">
          <mxGeometry x="1745" y="1135" width="60" height="30" as="geometry" />
        </mxCell>
        <mxCell id="Ml1TIX4p95IZXYvKLM33-146" value="Нет" style="text;html=1;strokeColor=none;fillColor=none;align=center;verticalAlign=middle;whiteSpace=wrap;rounded=0;" vertex="1" parent="1">
          <mxGeometry x="1710" y="858" width="60" height="30" as="geometry" />
        </mxCell>
        <mxCell id="Ml1TIX4p95IZXYvKLM33-147" value="Да" style="text;html=1;strokeColor=none;fillColor=none;align=center;verticalAlign=middle;whiteSpace=wrap;rounded=0;" vertex="1" parent="1">
          <mxGeometry x="1852" y="804" width="60" height="30" as="geometry" />
        </mxCell>
      </root>
    </mxGraphModel>
  </diagram>
</mxfile>
